<svg xmlns="http://www.w3.org/2000/svg" viewBox="0 0 128 128"><path fill="#444b54" d="M24 24H104V104H24z"></path><path fill="#444b54" d="M24 24H104V104H24z"></path><path fill="#fff" d="M27,91V37c0-5.5,4.5-10,10-10h54c5.5,0,10,4.5,10,10v54c0,5.5-4.5,10-10,10H37C31.5,101,27,96.5,27,91z"></path><path fill="#ff5576" d="M57.3,52.3l15.8,9.1c2,1.2,2,4,0,5.2l-15.8,9.1c-2,1.2-4.5-0.3-4.5-2.6l0-18.2C52.8,52.6,55.3,51.1,57.3,52.3z"></path><path fill="#444b54" d="M24 107c-1.7 0-3-1.3-3-3V24c0-1.7 1.3-3 3-3s3 1.3 3 3v80C27 105.7 25.7 107 24 107zM104 107c-1.7 0-3-1.3-3-3V24c0-1.7 1.3-3 3-3s3 1.3 3 3v80C107 105.7 105.7 107 104 107z"></path><path fill="#444b54" d="M114,21H14c-4.4,0-8,3.6-8,8v65c0,1.7,1.3,3,3,3s3-1.3,3-3v-7h12c1.7,0,3-1.3,3-3s-1.3-3-3-3H12V67h12c1.7,0,3-1.3,3-3s-1.3-3-3-3H12V47h12c1.7,0,3-1.3,3-3s-1.3-3-3-3H12V29c0-1.1,0.9-2,2-2h100c1.1,0,2,0.9,2,2v12h-12c-1.7,0-3,1.3-3,3s1.3,3,3,3h12v14h-12c-1.7,0-3,1.3-3,3s1.3,3,3,3h12v14h-12c-1.7,0-3,1.3-3,3s1.3,3,3,3h12v12c0,1.1-0.9,2-2,2H19c-1.7,0-3,1.3-3,3s1.3,3,3,3h95c4.4,0,8-3.6,8-8V29C122,24.6,118.4,21,114,21z"></path></svg>